<svg width="155" height="43" viewBox="0 0 155 43" fill="none" xmlns="http://www.w3.org/2000/svg">
<path d="M22.582 22.5078C22.582 24.125 22.207 25.5781 21.457 26.8672C20.707 28.1562 19.7109 29.293 18.4688 30.2773C18.8438 30.8398 19.2305 31.4961 19.6289 32.2461C20.0273 32.9961 20.3789 33.793 20.6836 34.6367C21.0117 35.457 21.2695 36.2891 21.457 37.1328C21.668 37.9531 21.7734 38.7148 21.7734 39.418C21.7734 40.168 21.5859 40.8359 21.2109 41.4219C20.8594 42.0312 20.25 42.3359 19.3828 42.3359C18.6562 42.3359 18.0234 41.9844 17.4844 41.2812C16.9688 40.5781 16.5 39.7461 16.0781 38.7852C15.6797 37.8008 15.3047 36.8047 14.9531 35.7969C14.625 34.7891 14.3086 33.9805 14.0039 33.3711C13.582 33.5117 13.1719 33.6758 12.7734 33.8633C12.375 34.0273 11.9648 34.1914 11.543 34.3555C11.5195 34.8711 11.4727 35.5859 11.4023 36.5C11.3555 37.3906 11.2266 38.2812 11.0156 39.1719C10.8281 40.0625 10.5352 40.8359 10.1367 41.4922C9.73828 42.1484 9.1875 42.4766 8.48438 42.4766C7.71094 42.4766 7.11328 42.1602 6.69141 41.5273C6.26953 40.8945 5.96484 40.1445 5.77734 39.2773C5.61328 38.4102 5.51953 37.5312 5.49609 36.6406C5.47266 35.7266 5.46094 35.0117 5.46094 34.4961C5.46094 33.3945 5.48438 32.3164 5.53125 31.2617C5.57812 30.1836 5.60156 29.0938 5.60156 27.9922C5.60156 26.9844 5.57812 25.9766 5.53125 24.9688C5.50781 23.9609 5.49609 22.9414 5.49609 21.9102C5.49609 21.6758 5.49609 21.3828 5.49609 21.0312C5.49609 20.6562 5.50781 20.2812 5.53125 19.9062C5.57812 19.5078 5.625 19.1328 5.67188 18.7812C5.71875 18.4297 5.80078 18.1484 5.91797 17.9375C6.15234 17.4453 6.67969 16.9766 7.5 16.5312C8.34375 16.0859 9.25781 15.6992 10.2422 15.3711C11.25 15.0195 12.2227 14.75 13.1602 14.5625C14.1211 14.3516 14.8359 14.2461 15.3047 14.2461C16.5 14.2461 17.5547 14.4688 18.4688 14.9141C19.3828 15.3594 20.1445 15.9688 20.7539 16.7422C21.3633 17.4922 21.8203 18.3711 22.125 19.3789C22.4297 20.3633 22.582 21.4062 22.582 22.5078ZM16.0781 23C16.0781 22.3906 15.9375 21.9336 15.6562 21.6289C15.375 21.3008 14.918 21.1367 14.2852 21.1367C13.8164 21.1367 13.3359 21.2188 12.8438 21.3828C12.375 21.5469 11.9414 21.7344 11.543 21.9453C11.6367 23.7969 11.6719 25.6367 11.6484 27.4648C12.1406 27.3008 12.6445 27.0898 13.1602 26.832C13.6758 26.5742 14.1445 26.2578 14.5664 25.8828C15.0117 25.5078 15.375 25.0859 15.6562 24.6172C15.9375 24.1484 16.0781 23.6094 16.0781 23ZM38.543 34.7422C38.543 35.5391 38.2852 36.3242 37.7695 37.0977C37.2773 37.8477 36.6445 38.5273 35.8711 39.1367C35.1211 39.7227 34.3125 40.2031 33.4453 40.5781C32.5781 40.9297 31.7812 41.1055 31.0547 41.1055C29.8125 41.1055 28.6992 40.8008 27.7148 40.1914C26.7539 39.5586 25.9453 38.7617 25.2891 37.8008C24.6328 36.8398 24.1289 35.7852 23.7773 34.6367C23.4492 33.4648 23.2852 32.3281 23.2852 31.2266C23.2852 30.0547 23.4492 28.8008 23.7773 27.4648C24.1055 26.1289 24.5977 24.8984 25.2539 23.7734C25.9336 22.6484 26.7773 21.7109 27.7852 20.9609C28.8164 20.2109 30.0352 19.8359 31.4414 19.8359C32.2383 19.8359 33 19.9766 33.7266 20.2578C34.4531 20.5156 35.0859 20.8906 35.625 21.3828C36.1641 21.875 36.5977 22.4609 36.9258 23.1406C37.2539 23.8203 37.418 24.582 37.418 25.4258C37.418 26.5273 37.1836 27.5586 36.7148 28.5195C36.2461 29.4805 35.625 30.3125 34.8516 31.0156C34.0781 31.7188 33.1875 32.293 32.1797 32.7383C31.1719 33.1602 30.1406 33.3945 29.0859 33.4414C29.1797 34.1211 29.4492 34.6133 29.8945 34.918C30.3633 35.2227 30.9141 35.375 31.5469 35.375C32.0156 35.375 32.4727 35.2578 32.918 35.0234C33.3633 34.7891 33.7969 34.5312 34.2188 34.25C34.6406 33.9453 35.0508 33.6758 35.4492 33.4414C35.8711 33.207 36.293 33.0898 36.7148 33.0898C37.1836 33.0898 37.6055 33.2422 37.9805 33.5469C38.3555 33.8516 38.543 34.25 38.543 34.7422ZM32.8477 26.1289C32.8477 25.8242 32.7656 25.5078 32.6016 25.1797C32.4375 24.8516 32.1797 24.6875 31.8281 24.6875C31.3125 24.6875 30.8789 24.8281 30.5273 25.1094C30.1758 25.3672 29.8828 25.707 29.6484 26.1289C29.4141 26.5273 29.2266 26.9609 29.0859 27.4297C28.9688 27.8984 28.8984 28.332 28.875 28.7305C29.2031 28.6602 29.5898 28.5664 30.0352 28.4492C30.5039 28.332 30.9375 28.1797 31.3359 27.9922C31.7578 27.7812 32.1094 27.5234 32.3906 27.2188C32.6953 26.9141 32.8477 26.5508 32.8477 26.1289ZM55.1016 28.4141C54.4922 30.0312 53.8242 31.7188 53.0977 33.4766C52.3711 35.2344 51.5859 36.875 50.7422 38.3984C50.2266 39.3359 49.6523 40.1211 49.0195 40.7539C48.3867 41.3633 47.6602 41.668 46.8398 41.668C46.1836 41.668 45.5391 41.3398 44.9062 40.6836C44.2969 40.0039 43.7227 39.207 43.1836 38.293C42.668 37.3555 42.2109 36.418 41.8125 35.4805C41.4375 34.5195 41.1562 33.7578 40.9688 33.1953C40.7812 32.5625 40.5703 31.8828 40.3359 31.1562C40.1016 30.4297 39.8906 29.6914 39.7031 28.9414C39.5156 28.1914 39.3633 27.4531 39.2461 26.7266C39.1289 25.9766 39.0703 25.2734 39.0703 24.6172C39.0703 23.7031 39.2344 22.9531 39.5625 22.3672C39.8906 21.7812 40.5352 21.4883 41.4961 21.4883C41.8711 21.4883 42.2109 21.6055 42.5156 21.8398C42.8203 22.0508 43.1016 22.3555 43.3594 22.7539C43.6172 23.1523 43.8633 23.6211 44.0977 24.1602C44.332 24.6758 44.5547 25.25 44.7656 25.8828C44.9766 26.4922 45.1758 27.125 45.3633 27.7812C45.5508 28.4375 45.7383 29.0703 45.9258 29.6797C46.1133 30.2891 46.3008 30.8867 46.4883 31.4727C46.6992 32.0352 46.9688 32.5977 47.2969 33.1602C47.4609 32.7383 47.6484 32.2578 47.8594 31.7188C48.0703 31.1797 48.293 30.6055 48.5273 29.9961C48.7852 29.3867 49.0547 28.7656 49.3359 28.1328C49.6172 27.4766 49.9219 26.8438 50.25 26.2344C50.8828 24.9688 51.5508 23.8906 52.2539 23C52.9805 22.1094 53.6953 21.6641 54.3984 21.6641C55.0547 21.6641 55.5234 21.8633 55.8047 22.2617C56.0859 22.6602 56.2266 23.1758 56.2266 23.8086C56.2266 24.4414 56.1211 25.1562 55.9102 25.9531C55.6992 26.75 55.4297 27.5703 55.1016 28.4141ZM63.2578 16.4609C63.2578 16.7891 63.1641 17.082 62.9766 17.3398C62.8125 17.5977 62.5898 17.832 62.3086 18.043C62.0273 18.2305 61.7227 18.3828 61.3945 18.5C61.0664 18.5938 60.7617 18.6406 60.4805 18.6406C60.0117 18.6406 59.6016 18.5234 59.25 18.2891C58.8984 18.0547 58.7227 17.6914 58.7227 17.1992C58.7227 16.8477 58.8047 16.543 58.9688 16.2852C59.1562 16.0039 59.3789 15.7812 59.6367 15.6172C59.8945 15.4297 60.1875 15.2891 60.5156 15.1953C60.8438 15.1016 61.1602 15.0547 61.4648 15.0547C61.9102 15.0547 62.3203 15.1602 62.6953 15.3711C63.0703 15.582 63.2578 15.9453 63.2578 16.4609ZM63.5391 28.4141C63.5391 28.7422 63.5391 29.0938 63.5391 29.4688C63.5391 29.8203 63.5273 30.1602 63.5039 30.4883C63.4805 30.8867 63.4688 31.4258 63.4688 32.1055C63.4688 32.7617 63.4453 33.4766 63.3984 34.25C63.3516 35.0234 63.2695 35.8086 63.1523 36.6055C63.0586 37.4023 62.8945 38.1289 62.6602 38.7852C62.4258 39.4414 62.1094 39.9805 61.7109 40.4023C61.3359 40.8008 60.8555 41.0117 60.2695 41.0352C59.8242 41.0586 59.4492 40.8828 59.1445 40.5078C58.8398 40.1328 58.582 39.6523 58.3711 39.0664C58.1836 38.457 58.043 37.7891 57.9492 37.0625C57.8555 36.3125 57.7852 35.5977 57.7383 34.918C57.6914 34.2148 57.668 33.5703 57.668 32.9844C57.668 32.3984 57.668 31.9648 57.668 31.6836C57.668 31.3086 57.668 30.7812 57.668 30.1016C57.668 29.3984 57.6914 28.6484 57.7383 27.8516C57.7852 27.0547 57.8672 26.2461 57.9844 25.4258C58.125 24.6055 58.3125 23.8555 58.5469 23.1758C58.8047 22.4961 59.1328 21.9453 59.5312 21.5234C59.9297 21.1016 60.4336 20.8906 61.043 20.8906C61.6758 20.8906 62.1562 21.207 62.4844 21.8398C62.8125 22.4727 63.0586 23.2109 63.2227 24.0547C63.3867 24.8984 63.4805 25.7422 63.5039 26.5859C63.5273 27.4062 63.5391 28.0156 63.5391 28.4141ZM80.7656 34.7422C80.7656 35.5391 80.5078 36.3242 79.9922 37.0977C79.5 37.8477 78.8672 38.5273 78.0938 39.1367C77.3438 39.7227 76.5352 40.2031 75.668 40.5781C74.8008 40.9297 74.0039 41.1055 73.2773 41.1055C72.0352 41.1055 70.9219 40.8008 69.9375 40.1914C68.9766 39.5586 68.168 38.7617 67.5117 37.8008C66.8555 36.8398 66.3516 35.7852 66 34.6367C65.6719 33.4648 65.5078 32.3281 65.5078 31.2266C65.5078 30.0547 65.6719 28.8008 66 27.4648C66.3281 26.1289 66.8203 24.8984 67.4766 23.7734C68.1562 22.6484 69 21.7109 70.0078 20.9609C71.0391 20.2109 72.2578 19.8359 73.6641 19.8359C74.4609 19.8359 75.2227 19.9766 75.9492 20.2578C76.6758 20.5156 77.3086 20.8906 77.8477 21.3828C78.3867 21.875 78.8203 22.4609 79.1484 23.1406C79.4766 23.8203 79.6406 24.582 79.6406 25.4258C79.6406 26.5273 79.4062 27.5586 78.9375 28.5195C78.4688 29.4805 77.8477 30.3125 77.0742 31.0156C76.3008 31.7188 75.4102 32.293 74.4023 32.7383C73.3945 33.1602 72.3633 33.3945 71.3086 33.4414C71.4023 34.1211 71.6719 34.6133 72.1172 34.918C72.5859 35.2227 73.1367 35.375 73.7695 35.375C74.2383 35.375 74.6953 35.2578 75.1406 35.0234C75.5859 34.7891 76.0195 34.5312 76.4414 34.25C76.8633 33.9453 77.2734 33.6758 77.6719 33.4414C78.0938 33.207 78.5156 33.0898 78.9375 33.0898C79.4062 33.0898 79.8281 33.2422 80.2031 33.5469C80.5781 33.8516 80.7656 34.25 80.7656 34.7422ZM75.0703 26.1289C75.0703 25.8242 74.9883 25.5078 74.8242 25.1797C74.6602 24.8516 74.4023 24.6875 74.0508 24.6875C73.5352 24.6875 73.1016 24.8281 72.75 25.1094C72.3984 25.3672 72.1055 25.707 71.8711 26.1289C71.6367 26.5273 71.4492 26.9609 71.3086 27.4297C71.1914 27.8984 71.1211 28.332 71.0977 28.7305C71.4258 28.6602 71.8125 28.5664 72.2578 28.4492C72.7266 28.332 73.1602 28.1797 73.5586 27.9922C73.9805 27.7812 74.332 27.5234 74.6133 27.2188C74.918 26.9141 75.0703 26.5508 75.0703 26.1289ZM99.6797 41.457C98.9297 41.457 98.25 41.0586 97.6406 40.2617C97.0547 39.4648 96.5391 38.5156 96.0938 37.4141C95.6484 36.2891 95.2734 35.1406 94.9688 33.9688C94.6875 32.7969 94.4766 31.8242 94.3359 31.0508C94.1484 31.5195 93.8906 32.0938 93.5625 32.7734C93.2578 33.4531 92.8945 34.168 92.4727 34.918C92.0742 35.668 91.6406 36.4297 91.1719 37.2031C90.7031 37.9531 90.2109 38.6328 89.6953 39.2422C89.2031 39.8516 88.6992 40.3438 88.1836 40.7188C87.6914 41.0938 87.2109 41.2812 86.7422 41.2812C86.1094 41.2812 85.5469 40.9766 85.0547 40.3672C84.5859 39.7578 84.1875 38.9609 83.8594 37.9766C83.5312 36.9922 83.25 35.9023 83.0156 34.707C82.8047 33.5117 82.6406 32.3164 82.5234 31.1211C82.4062 29.9258 82.3242 28.8125 82.2773 27.7812C82.2305 26.75 82.207 25.918 82.207 25.2852C82.207 24.6992 82.2305 24.1367 82.2773 23.5977C82.3477 23.0586 82.4648 22.5781 82.6289 22.1562C82.8164 21.7344 83.0742 21.4062 83.4023 21.1719C83.7539 20.9141 84.2109 20.7852 84.7734 20.7852C85.3125 20.7852 85.7695 20.9844 86.1445 21.3828C86.543 21.7812 86.8711 22.3086 87.1289 22.9648C87.3867 23.5977 87.5977 24.3242 87.7617 25.1445C87.9258 25.9414 88.0547 26.7617 88.1484 27.6055C88.2422 28.4258 88.3008 29.2344 88.3242 30.0312C88.3711 30.8047 88.4062 31.4727 88.4297 32.0352C88.5703 31.543 88.7695 30.9453 89.0273 30.2422C89.2852 29.5156 89.5664 28.7539 89.8711 27.957C90.1758 27.1367 90.5039 26.3281 90.8555 25.5312C91.2305 24.7344 91.5938 24.0195 91.9453 23.3867C92.3203 22.7539 92.6836 22.2383 93.0352 21.8398C93.3867 21.4414 93.7266 21.2422 94.0547 21.2422H94.0898C94.5117 21.2422 94.9219 21.4414 95.3203 21.8398C95.7188 22.2383 96.1055 22.7539 96.4805 23.3867C96.8555 24.0195 97.207 24.7461 97.5352 25.5664C97.8633 26.3633 98.168 27.1836 98.4492 28.0273C98.7305 28.8477 98.9766 29.6562 99.1875 30.4531C99.3984 31.2266 99.5742 31.8945 99.7148 32.457C99.7383 31.7773 99.7734 31.0156 99.8203 30.1719C99.8672 29.3047 99.9492 28.4375 100.066 27.5703C100.207 26.7031 100.383 25.8594 100.594 25.0391C100.828 24.2188 101.109 23.4922 101.438 22.8594C101.766 22.2031 102.164 21.6875 102.633 21.3125C103.125 20.9141 103.688 20.7148 104.32 20.7148C104.977 20.7148 105.457 20.9492 105.762 21.418C106.09 21.8633 106.254 22.4141 106.254 23.0703C106.254 23.7734 106.16 24.7109 105.973 25.8828C105.809 27.0547 105.574 28.332 105.27 29.7148C104.965 31.0742 104.602 32.457 104.18 33.8633C103.781 35.2461 103.336 36.5 102.844 37.625C102.352 38.75 101.836 39.6758 101.297 40.4023C100.758 41.1055 100.219 41.457 99.6797 41.457ZM123.727 23.1055C123.727 23.5508 123.668 24.0195 123.551 24.5117C123.457 25.0039 123.293 25.4609 123.059 25.8828C122.824 26.3047 122.52 26.6562 122.145 26.9375C121.77 27.2188 121.312 27.3594 120.773 27.3594C119.953 27.3594 119.344 27.2188 118.945 26.9375C118.547 26.6328 118.266 26.2578 118.102 25.8125C117.938 25.3672 117.844 24.8984 117.82 24.4062C117.82 23.8906 117.809 23.4102 117.785 22.9648C117.762 22.5195 117.68 22.1562 117.539 21.875C117.422 21.5703 117.152 21.418 116.73 21.418C116.262 21.418 115.852 21.5938 115.5 21.9453C115.148 22.2734 114.844 22.707 114.586 23.2461C114.328 23.7852 114.105 24.3945 113.918 25.0742C113.754 25.7539 113.613 26.4336 113.496 27.1133C113.402 27.7695 113.332 28.4023 113.285 29.0117C113.238 29.5977 113.215 30.0781 113.215 30.4531C113.215 30.9453 113.227 31.5312 113.25 32.2109C113.297 32.8906 113.414 33.5469 113.602 34.1797C113.789 34.7891 114.07 35.3164 114.445 35.7617C114.82 36.1836 115.359 36.3945 116.062 36.3945C116.531 36.3945 116.988 36.3359 117.434 36.2188C117.879 36.1016 118.324 35.9727 118.77 35.832C119.215 35.668 119.66 35.5273 120.105 35.4102C120.574 35.293 121.043 35.2344 121.512 35.2344C122.051 35.2344 122.496 35.457 122.848 35.9023C123.199 36.3242 123.375 36.8047 123.375 37.3438C123.375 38.0938 123.141 38.7969 122.672 39.4531C122.203 40.0859 121.617 40.6484 120.914 41.1406C120.234 41.6328 119.484 42.0195 118.664 42.3008C117.867 42.582 117.141 42.7227 116.484 42.7227C114.797 42.7227 113.367 42.3359 112.195 41.5625C111.023 40.8125 110.074 39.8398 109.348 38.6445C108.621 37.4258 108.094 36.0781 107.766 34.6016C107.461 33.1016 107.309 31.6133 107.309 30.1367C107.309 29.1523 107.402 28.0742 107.59 26.9023C107.777 25.7305 108.059 24.5586 108.434 23.3867C108.809 22.1914 109.277 21.043 109.84 19.9414C110.426 18.8398 111.105 17.8672 111.879 17.0234C112.652 16.1797 113.52 15.5 114.48 14.9844C115.465 14.4688 116.543 14.2109 117.715 14.2109C118.863 14.2109 119.824 14.5039 120.598 15.0898C121.371 15.6523 121.992 16.3789 122.461 17.2695C122.93 18.1367 123.258 19.0977 123.445 20.1523C123.633 21.1836 123.727 22.168 123.727 23.1055ZM140.074 36.043C140.074 36.4648 140.051 37.0156 140.004 37.6953C139.98 38.375 139.887 39.043 139.723 39.6992C139.559 40.332 139.301 40.8828 138.949 41.3516C138.598 41.8203 138.105 42.0547 137.473 42.0547C136.605 42.0547 135.938 41.7734 135.469 41.2109C135 40.6484 134.777 39.9453 134.801 39.1016C134.051 39.7578 133.195 40.2734 132.234 40.6484C131.297 41.0234 130.336 41.2109 129.352 41.2109C128.672 41.2109 128.027 41.0469 127.418 40.7188C126.809 40.3906 126.27 39.9688 125.801 39.4531C125.332 38.9375 124.957 38.3633 124.676 37.7305C124.395 37.0742 124.254 36.4297 124.254 35.7969C124.254 34.6719 124.594 33.6875 125.273 32.8438C125.977 32 126.832 31.2852 127.84 30.6992C128.848 30.0898 129.914 29.6094 131.039 29.2578C132.188 28.9062 133.207 28.6719 134.098 28.5547C134.098 28.4375 134.098 28.332 134.098 28.2383C134.121 28.1445 134.133 28.0391 134.133 27.9219C134.133 27.1953 133.934 26.6094 133.535 26.1641C133.137 25.7188 132.574 25.4961 131.848 25.4961C131.262 25.4961 130.758 25.6016 130.336 25.8125C129.914 26 129.516 26.2227 129.141 26.4805C128.766 26.7148 128.391 26.9375 128.016 27.1484C127.641 27.3359 127.219 27.4297 126.75 27.4297C126.234 27.4297 125.789 27.2656 125.414 26.9375C125.062 26.6094 124.887 26.1875 124.887 25.6719C124.887 24.8984 125.109 24.1953 125.555 23.5625C126.023 22.9297 126.598 22.4023 127.277 21.9805C127.98 21.5352 128.73 21.1953 129.527 20.9609C130.348 20.7031 131.098 20.5742 131.777 20.5742C132.41 20.5742 133.043 20.6562 133.676 20.8203C134.309 20.9609 134.906 21.1953 135.469 21.5234C136.031 21.8281 136.535 22.2148 136.98 22.6836C137.449 23.1289 137.824 23.6562 138.105 24.2656C138.527 25.1328 138.867 26.0586 139.125 27.043C139.383 28.0039 139.582 29 139.723 30.0312C139.863 31.0391 139.957 32.0586 140.004 33.0898C140.051 34.0977 140.074 35.082 140.074 36.043ZM134.449 34.918L134.344 32.5273C134.297 32.5273 134.25 32.5273 134.203 32.5273C134.156 32.5039 134.109 32.4922 134.062 32.4922C133.758 32.4922 133.371 32.5742 132.902 32.7383C132.457 32.8789 132.023 33.0898 131.602 33.3711C131.18 33.6289 130.816 33.9219 130.512 34.25C130.23 34.5781 130.09 34.918 130.09 35.2695C130.09 35.5977 130.207 35.8203 130.441 35.9375C130.676 36.0547 130.945 36.1133 131.25 36.1133C131.766 36.1133 132.316 35.9844 132.902 35.7266C133.488 35.4453 134.004 35.1758 134.449 34.918ZM150.375 42.2656C148.711 42.2656 147.41 42.043 146.473 41.5977C145.559 41.1758 144.867 40.5664 144.398 39.7695C143.953 38.9727 143.684 38.0117 143.59 36.8867C143.496 35.7617 143.449 34.5078 143.449 33.125C143.449 32.0234 143.484 30.9219 143.555 29.8203C143.625 28.6953 143.73 27.5 143.871 26.2344C143.543 26.2344 143.285 26.2461 143.098 26.2695C142.91 26.2695 142.758 26.2695 142.641 26.2695C141.891 26.2695 141.246 26.1055 140.707 25.7773C140.145 25.4492 139.863 24.9453 139.863 24.2656C139.863 23.8438 140.027 23.4688 140.355 23.1406C140.66 22.8125 141.059 22.5312 141.551 22.2969C142.043 22.0625 142.57 21.875 143.133 21.7344C143.719 21.5938 144.27 21.5 144.785 21.4531C144.785 20.7969 144.832 20.0703 144.926 19.2734C145.02 18.4766 145.184 17.7383 145.418 17.0586C145.676 16.3555 146.016 15.7695 146.438 15.3008C146.859 14.832 147.398 14.5977 148.055 14.5977C148.43 14.5977 148.758 14.7148 149.039 14.9492C149.344 15.1602 149.59 15.4414 149.777 15.793C149.965 16.1211 150.105 16.4961 150.199 16.918C150.293 17.3398 150.34 17.75 150.34 18.1484C150.34 18.6172 150.305 19.0977 150.234 19.5898C150.164 20.082 150.035 20.6914 149.848 21.418C150.246 21.3711 150.516 21.3477 150.656 21.3477C150.797 21.3242 150.926 21.3125 151.043 21.3125C151.441 21.3125 151.852 21.3477 152.273 21.418C152.719 21.4883 153.117 21.6055 153.469 21.7695C153.844 21.9336 154.148 22.1562 154.383 22.4375C154.617 22.6953 154.734 23.0117 154.734 23.3867C154.734 23.8086 154.559 24.1836 154.207 24.5117C153.879 24.8398 153.457 25.1211 152.941 25.3555C152.426 25.5898 151.875 25.7773 151.289 25.918C150.703 26.0352 150.152 26.1172 149.637 26.1641C149.496 27.125 149.391 28.0156 149.32 28.8359C149.273 29.6328 149.215 30.4414 149.145 31.2617C149.098 31.6602 149.051 32.0703 149.004 32.4922C148.98 32.8906 148.969 33.3008 148.969 33.7227C148.969 34.0273 148.98 34.3906 149.004 34.8125C149.027 35.2109 149.109 35.5977 149.25 35.9727C149.391 36.3477 149.613 36.6758 149.918 36.957C150.223 37.2148 150.645 37.3438 151.184 37.3438C151.512 37.3438 151.852 37.3203 152.203 37.2734C152.555 37.2031 152.906 37.168 153.258 37.168C153.867 37.168 154.301 37.3789 154.559 37.8008C154.84 38.2227 154.98 38.7617 154.98 39.418C154.98 39.9102 154.828 40.3438 154.523 40.7188C154.242 41.0703 153.879 41.3516 153.434 41.5625C152.988 41.7969 152.484 41.9727 151.922 42.0898C151.383 42.207 150.867 42.2656 150.375 42.2656Z" fill="#008058"/>
<path d="M5.30279 2.85037C5.3688 2.64722 5.6562 2.64722 5.72221 2.85037L6.70063 5.86164C6.73015 5.95249 6.81481 6.014 6.91034 6.014H10.0766C10.2902 6.014 10.379 6.28733 10.2062 6.41289L7.64464 8.27395C7.56736 8.3301 7.53502 8.42963 7.56454 8.52048L8.54296 11.5317C8.60897 11.7349 8.37645 11.9038 8.20364 11.7783L5.64211 9.91721C5.56482 9.86106 5.46018 9.86106 5.38289 9.91721L2.82136 11.7783C2.64855 11.9038 2.41603 11.7349 2.48204 11.5317L3.46046 8.52048C3.48998 8.42963 3.45764 8.3301 3.38036 8.27395L0.818824 6.41289C0.646015 6.28733 0.734827 6.014 0.94843 6.014H4.11466C4.21019 6.014 4.29485 5.95249 4.32437 5.86164L5.30279 2.85037Z" fill="#FFD500"/>
<path d="M13.0203 0.645415C13.0863 0.442266 13.3737 0.442266 13.4397 0.645415L14.4181 3.65668C14.4476 3.74753 14.5323 3.80904 14.6278 3.80904H17.794C18.0076 3.80904 18.0965 4.08238 17.9236 4.20793L15.3621 6.069C15.2848 6.12515 15.2525 6.22467 15.282 6.31552L16.2604 9.32679C16.3264 9.52994 16.0939 9.69887 15.9211 9.57332L13.3596 7.71225C13.2823 7.6561 13.1776 7.6561 13.1004 7.71225L10.5388 9.57332C10.366 9.69887 10.1335 9.52994 10.1995 9.32679L11.1779 6.31552C11.2074 6.22467 11.1751 6.12515 11.0978 6.069L8.53629 4.20793C8.36348 4.08238 8.4523 3.80904 8.6659 3.80904H11.8321C11.9277 3.80904 12.0123 3.74753 12.0418 3.65668L13.0203 0.645415Z" fill="#FFD500"/>
<path d="M20.7377 2.85037C20.8037 2.64722 21.0911 2.64722 21.1571 2.85037L22.1356 5.86164C22.1651 5.95249 22.2497 6.014 22.3453 6.014H25.5115C25.7251 6.014 25.8139 6.28733 25.6411 6.41289L23.0796 8.27395C23.0023 8.3301 22.97 8.42963 22.9995 8.52048L23.9779 11.5317C24.0439 11.7349 23.8114 11.9038 23.6386 11.7783L21.077 9.91721C20.9998 9.86106 20.8951 9.86106 20.8178 9.91721L18.2563 11.7783C18.0835 11.9038 17.851 11.7349 17.917 11.5317L18.8954 8.52048C18.9249 8.42963 18.8926 8.3301 18.8153 8.27395L16.2538 6.41289C16.081 6.28733 16.1698 6.014 16.3834 6.014H19.5496C19.6451 6.014 19.7298 5.95249 19.7593 5.86164L20.7377 2.85037Z" fill="#FFD500"/>
</svg>
